<svg width="91" height="25" viewBox="0 0 91 25" fill="none" xmlns="http://www.w3.org/2000/svg">
<path d="M0.816 24V1.44H10C12.368 1.44 14.192 2.016 15.472 3.168C16.752 4.29867 17.392 5.87733 17.392 7.904C17.392 9.888 16.752 11.4667 15.472 12.64C14.192 13.792 12.368 14.368 10 14.368H3.472V24H0.816ZM3.472 12.16H9.744C11.3867 12.16 12.624 11.7867 13.456 11.04C14.3093 10.2933 14.736 9.248 14.736 7.904C14.736 6.53867 14.3093 5.48267 13.456 4.736C12.624 3.98933 11.3867 3.616 9.744 3.616H3.472V12.16ZM27.8203 24.288C25.3029 24.288 23.3189 23.5627 21.8683 22.112C20.4176 20.64 19.6923 18.6027 19.6923 16C19.6923 14.3147 20.0123 12.8533 20.6523 11.616C21.2923 10.3573 22.1883 9.38667 23.3403 8.704C24.4923 8 25.8149 7.648 27.3083 7.648C28.7803 7.648 30.0176 7.95733 31.0203 8.576C32.0229 9.19467 32.7909 10.08 33.3243 11.232C33.8576 12.3627 34.1243 13.7067 34.1243 15.264V16.224H21.6763V14.592H32.4283L31.8843 15.008C31.8843 13.3013 31.5003 11.968 30.7323 11.008C29.9643 10.048 28.8229 9.568 27.3083 9.568C25.7083 9.568 24.4603 10.1333 23.5643 11.264C22.6683 12.3733 22.2203 13.8773 22.2203 15.776V16.064C22.2203 18.0693 22.7109 19.5947 23.6923 20.64C24.6949 21.664 26.0923 22.176 27.8843 22.176C28.8443 22.176 29.7403 22.0373 30.5723 21.76C31.4256 21.4613 32.2363 20.9813 33.0043 20.32L33.9003 22.144C33.1963 22.8267 32.3003 23.36 31.2123 23.744C30.1456 24.1067 29.0149 24.288 27.8203 24.288Z" fill="black"/>
<path d="M48.7465 24.288C46.2718 24.288 44.2025 23.8293 42.5385 22.912C40.8745 21.9947 39.6265 20.672 38.7945 18.944C37.9625 17.216 37.5465 15.1467 37.5465 12.736C37.5465 10.3467 37.9838 8.288 38.8585 6.56C39.7332 4.832 40.9918 3.49867 42.6345 2.56C44.2772 1.62133 46.2612 1.152 48.5865 1.152C50.2292 1.152 51.6478 1.39733 52.8425 1.888C54.0585 2.35733 55.1465 3.06133 56.1065 4L55.1145 6.08C54.4105 5.46133 53.7278 4.97067 53.0665 4.608C52.4265 4.24533 51.7545 3.97867 51.0505 3.808C50.3465 3.616 49.5252 3.52 48.5865 3.52C45.9198 3.52 43.8718 4.33067 42.4425 5.952C41.0345 7.552 40.3305 9.824 40.3305 12.768C40.3305 15.7333 41.0132 18.0053 42.3785 19.584C43.7652 21.1627 45.9092 21.952 48.8105 21.952C49.8772 21.952 50.8905 21.856 51.8505 21.664C52.8318 21.4507 53.7812 21.152 54.6985 20.768L54.1225 22.208V14.272H48.3625V12.192H56.3945V22.656C55.4772 23.1467 54.3145 23.5413 52.9065 23.84C51.5198 24.1387 50.1332 24.288 48.7465 24.288ZM68.0888 24.288C66.5528 24.288 65.2088 23.9573 64.0568 23.296C62.9261 22.6133 62.0514 21.6533 61.4328 20.416C60.8141 19.1573 60.5048 17.6747 60.5048 15.968C60.5048 14.24 60.8141 12.7573 61.4328 11.52C62.0514 10.2827 62.9261 9.33333 64.0568 8.672C65.2088 7.98933 66.5528 7.648 68.0888 7.648C69.6461 7.648 70.9901 7.98933 72.1208 8.672C73.2728 9.33333 74.1581 10.2827 74.7768 11.52C75.4168 12.7573 75.7368 14.24 75.7368 15.968C75.7368 17.6747 75.4168 19.1573 74.7768 20.416C74.1581 21.6533 73.2728 22.6133 72.1208 23.296C70.9901 23.9573 69.6461 24.288 68.0888 24.288ZM68.0888 22.176C69.6248 22.176 70.8408 21.6533 71.7368 20.608C72.6328 19.5413 73.0808 17.9947 73.0808 15.968C73.0808 13.92 72.6221 12.3733 71.7048 11.328C70.8088 10.2613 69.6034 9.728 68.0888 9.728C66.5741 9.728 65.3688 10.2613 64.4728 11.328C63.5768 12.3733 63.1288 13.92 63.1288 15.968C63.1288 17.9947 63.5768 19.5413 64.4728 20.608C65.3688 21.6533 66.5741 22.176 68.0888 22.176ZM79.778 24V0.447998H82.37V24H79.778ZM86.891 24V20.736H90.155V24H86.891Z" fill="#FD7B01"/>
</svg>
